<svg xmlns="http://www.w3.org/2000/svg" fill="none" viewBox="0 0 50 50"><path fill="url(#a)" fill-rule="evenodd" d="M15.1407 9.70555C21.7012 9.13526 28.2988 9.13526 34.8593 9.70555L38.0057 9.97906C41.0162 10.2408 43.4551 12.5317 43.9045 15.52C44.8496 21.8048 44.8496 28.1956 43.9045 34.4805C43.8218 35.0302 43.6718 35.5564 43.4633 36.0507C43.325 36.3784 42.8984 36.4282 42.6591 36.165L33.4478 26.0325C33.0316 25.5747 32.3845 25.4056 31.7975 25.6012L26.525 27.3588L18.8762 18.7538C18.5903 18.4322 18.1844 18.2427 17.7542 18.2301C17.3241 18.2174 16.9078 18.3828 16.6035 18.687L6.36571 28.9248C6.05063 29.2399 5.51325 29.0393 5.48813 28.5944C5.24181 24.2322 5.44428 19.8509 6.09555 15.52C6.54492 12.5317 8.98381 10.2408 11.9944 9.97906L15.1407 9.70555ZM29.1667 18.7502C29.1667 17.0243 30.5658 15.6252 32.2917 15.6252C34.0176 15.6252 35.4167 17.0243 35.4167 18.7502C35.4167 20.4761 34.0176 21.8752 32.2917 21.8752C30.5658 21.8752 29.1667 20.4761 29.1667 18.7502Z" clip-rule="evenodd"/><path fill="url(#b)" d="M6.16945 33.5405C6.05413 33.6558 5.99935 33.8185 6.02232 33.98C6.04606 34.1469 6.07047 34.3137 6.09555 34.4805C6.54492 37.4688 8.98382 39.7597 11.9944 40.0214L15.1407 40.2949C21.7012 40.8652 28.2988 40.8652 34.8593 40.2949L38.0057 40.0214C38.8903 39.9445 39.7256 39.6924 40.4756 39.2988C40.7597 39.1497 40.8076 38.7739 40.5917 38.5364L32.0484 29.1388C31.9097 28.9862 31.694 28.9298 31.4983 28.995L26.5358 30.6492C25.9428 30.8469 25.2891 30.6721 24.8738 30.205L18.0084 22.4814C17.8093 22.2574 17.4627 22.2472 17.2508 22.4591L6.16945 33.5405Z"/><defs><linearGradient id="a" x1="25" x2="25" y1="9.278" y2="40.723" gradientUnits="userSpaceOnUse"><stop stop-color="#834D9B"/><stop offset="1" stop-color="#D04ED6"/></linearGradient><linearGradient id="b" x1="25" x2="25" y1="9.278" y2="40.723" gradientUnits="userSpaceOnUse"><stop stop-color="#834D9B"/><stop offset="1" stop-color="#D04ED6"/></linearGradient></defs></svg>