<svg xmlns="http://www.w3.org/2000/svg" fill="none" viewBox="0 0 50 50"><path fill="url(#a)" d="M23.6187 7.8125C22.6645 7.81252 21.7707 8.27929 21.2254 9.06231L12.409 21.7229C10.7534 24.1004 10.0155 26.9972 10.332 29.877L11.0099 36.0466C11.2996 38.6831 13.3694 40.7714 16.0031 41.0847L20.4137 41.6094C23.7817 42.01 27.1966 41.6627 30.4151 40.5923C32.6678 39.843 34.4723 38.1331 35.3416 35.9239L38.9012 26.8779C39.0734 26.4403 39.1924 25.9837 39.2556 25.5177C39.8063 21.4611 36.1408 18.1005 32.1471 19.0004L24.0265 20.8302L26.4428 11.457C26.9187 9.61114 25.5249 7.81247 23.6187 7.8125Z"/><defs><linearGradient id="a" x1="24.785" x2="24.785" y1="7.813" y2="41.771" gradientUnits="userSpaceOnUse"><stop stop-color="#834D9B"/><stop offset="1" stop-color="#D04ED6"/></linearGradient></defs></svg>