<svg xmlns="http://www.w3.org/2000/svg" viewBox="0 0 155 155"><circle cx="77.5" cy="77.5" r="77.5" fill="#fe9526" class="colorfad97f svgShape"/><path fill="#167ffc" d="M59.561 125c-3.727 0-6.779-3.045-6.779-6.773V36.781c0-3.729 3.053-6.781 6.779-6.781h35.883c3.73 0 6.775 3.053 6.775 6.781v81.445c0 3.729-3.045 6.773-6.775 6.773H59.561z" class="color3f4a5a svgShape"/><path fill="#333349" d="M83.369 117.996c0 .895-.723 1.617-1.617 1.617h-8.5a1.622 1.622 0 0 1-1.621-1.617v-.678c0-.895.732-1.629 1.621-1.629h8.5c.895 0 1.617.734 1.617 1.629v.678zm1.225-80.504a.652.652 0 0 1-.656.658H71.072a.656.656 0 0 1-.664-.658v-.277c0-.359.295-.658.664-.658h12.865c.365 0 .656.299.656.658v.277z" class="color333c49 svgShape"/><path fill="#fff" d="M56.621 44.707h41.756v65.602H56.621z" class="colorffffff svgShape"/><path fill="#595bd4" d="M73.309 97.164h8.383v8.381h-8.383z" class="color6bc7d9 svgShape"/><path fill="#53d86a" d="M61.383 97.164h8.383v8.381h-8.383zM85.234 97.164h8.375v8.381h-8.375zM61.385 73.318h8.381v8.379h-8.381zM73.309 73.318h8.383v8.379h-8.383z" class="color9de8f7 svgShape"/><path fill="#595bd4" d="M61.385 61.395h8.381v8.381h-8.381z" class="color6bc7d9 svgShape"/><path fill="#53d86a" d="M73.309 61.395h8.383v8.381h-8.383zM85.234 61.395h8.375v8.381h-8.375zM61.385 49.473h8.381v8.381h-8.381zM73.309 49.473h8.383v8.381h-8.383z" class="color9de8f7 svgShape"/><path fill="#595bd4" d="M85.234 49.473h8.383v8.381h-8.383z" class="color6bc7d9 svgShape"/></svg>