<svg xmlns="http://www.w3.org/2000/svg" fill="none" viewBox="0 0 50 50"><path fill="url(#a)" fill-rule="evenodd" d="M29.9688 32.1788C24.4474 36.601 16.3653 36.2529 11.247 31.1346C5.75524 25.6429 5.75524 16.739 11.247 11.2472C16.7387 5.75548 25.6426 5.75548 31.1344 11.2472C36.2527 16.3655 36.6007 24.4477 32.1785 29.9691L42.9194 40.71C43.5296 41.3201 43.5296 42.3095 42.9194 42.9197C42.3092 43.5299 41.3199 43.5299 40.7097 42.9197L29.9688 32.1788ZM13.4567 28.9249C9.18533 24.6535 9.18533 17.7283 13.4567 13.4569C17.7281 9.18558 24.6533 9.18558 28.9247 13.4569C33.1929 17.7252 33.196 24.6434 28.9341 28.9155C28.9309 28.9186 28.9278 28.9217 28.9246 28.9248C28.9215 28.928 28.9184 28.9311 28.9153 28.9343C24.6431 33.1963 17.7249 33.1931 13.4567 28.9249Z" clip-rule="evenodd"/><defs><linearGradient id="a" x1="25.253" x2="25.253" y1="7.128" y2="43.377" gradientUnits="userSpaceOnUse"><stop stop-color="#834D9B"/><stop offset="1" stop-color="#D04ED6"/></linearGradient></defs></svg>