<svg xmlns="http://www.w3.org/2000/svg" xmlns:xlink="http://www.w3.org/1999/xlink" viewBox="0 0 32 32"><defs><linearGradient id="a"><stop offset="0" stop-color="#000092"/><stop offset="1" stop-color="#ff00f3"/></linearGradient><linearGradient id="b" x1="1" x2="25" y1="15.003" y2="15.003" gradientUnits="userSpaceOnUse" xlink:href="#a"/></defs><path style="line-height:normal;text-indent:0;text-align:start;text-decoration-line:none;text-decoration-style:solid;text-decoration-color:#000;text-transform:none;block-progression:tb;isolation:auto;mix-blend-mode:normal" fill="url(#b)" d="M21.697 3c-2.184 0-4.194 1.019-5.562 2.656-.685-.366-1.42-.655-2.205-.656a.5.5 0 0 0-.002 0c-2.5 0-4.533 1.943-4.612 4.365-.36-.14-.69-.364-1.084-.365-1.305 0-2.363.866-2.802 2.041C2.979 11.155 1 13.08 1 15.5 1 17.994 3.088 20 5.643 20H7.23l.168.65.014.051.045.123.172.469.94-.344-.173-.469-.033-.091-.2-.778-.075-.494-.145.022A.5.5 0 0 0 7.59 19H5.643C3.607 19 2 17.438 2 15.5S3.607 12 5.643 12h.052a.5.5 0 0 0 .49-.396C6.382 10.677 7.23 10 8.233 10c.471 0 .926.155 1.293.434a.5.5 0 0 0 .797-.471 3.325 3.325 0 0 1-.035-.465c0-1.927 1.615-3.496 3.64-3.498.732 0 1.447.215 2.05.61a.5.5 0 0 0 .673-.12C17.818 4.932 19.695 4 21.697 4c3.457 0 6.23 2.69 6.23 6a5.79 5.79 0 0 1-.27 1.746.5.5 0 0 0 .269.606C29.159 12.917 30 14.103 30 15.5c0 1.938-1.607 3.5-3.643 3.5h-1.414l.008-.055.004-.052.045-.87.025-.498-1-.05-.025.502-.041.832-.018.113-.074.496.043.006a.5.5 0 0 0 .5.576h1.947C28.912 20 31 17.994 31 15.5c0-1.65-.98-3.008-2.338-3.787.148-.56.265-1.13.266-1.711 0-3.87-3.252-7-7.23-7V3zM16.43 8.98l-.5.024-.825.04-.05.01-.172.024-.494.076.15.989.494-.077.139-.02.808-.042.5-.025-.05-.999zm1.148.141-.25.97.485.124.558.144.352.127.468.172.344-.94-.469-.171-.367-.133-.047-.018-.591-.152-.483-.123zm-4.258.285-.47.172-.33.121-.045.02-.584.281-.452.217.434.9.451-.217.557-.267.312-.115.471-.172-.344-.94zm7.192.815-.52.855.428.26.047.025.603.45.012.011.06.055.37.336.674-.74-.372-.336-.072-.065-.035-.031-.654-.488-.041-.028-.075-.045-.425-.26zm-10.024.634-.369.342-.467.424-.033.031-.248.274-.338.37.74.673.336-.37.217-.24.008-.01.457-.417.371-.336-.674-.74zM16 11c-3.86 0-7 3.14-7 7s3.14 7.002 7 7.002S23 21.86 23 18s-3.14-7-7-7zm-.5 1.102v2.148h-1.992c.176-.615.38-1.235.629-1.865a6.007 6.007 0 0 1 1.363-.283zm1 0c.455.039.89.131 1.307.263.25.637.459 1.263.636 1.885H16.5v-2.148zm6.44.166-.801.597.299.4.197.266.322.531.26.428.855-.52-.26-.427-.335-.555-.028-.039-.21-.281-.3-.4zm-3.856.683c.564.346 1.07.781 1.494 1.299h-1.103a19.48 19.48 0 0 0-.391-1.299zm-6.23.037c-.144.422-.266.842-.377 1.262h-1.055a5.945 5.945 0 0 1 1.432-1.262zm-4.454.2-.26.431-.042.069-.022.042-.36.743-.017.045-.033.087-.172.471.94.344.171-.47.014-.042.004-.01.344-.714.03-.05.259-.427-.856-.52zm16.12 1.843-.967.248.123.485.156.6.002.009.049.316.076.497.988-.153-.076-.494-.049-.326-.01-.049-.167-.648-.125-.485zm-13.772.219h1.492c-.153.75-.25 1.499-.29 2.25h-1.848c.07-.813.285-1.563.646-2.25zm2.498 0H15.5v2.25h-2.563a14.27 14.27 0 0 1 .31-2.25zm3.254 0h2.205c.166.753.265 1.502.309 2.25H16.5v-2.25zm3.21 0h1.542c.361.687.576 1.437.646 2.25h-1.896c-.04-.751-.138-1.5-.291-2.25zm-12.52.883-.075.496-.066.428-.004.05-.03.565-.025.5 1 .05.024-.5.027-.529.063-.414.076-.494-.99-.152zM10.1 18.5h1.834c.012.746.076 1.496.21 2.252h-1.396A5.88 5.88 0 0 1 10.1 18.5zm2.82 0h2.58v2.252h-2.355a12.899 12.899 0 0 1-.225-2.252zm3.58 0h2.531a12.899 12.899 0 0 1-.224 2.252H16.5V18.5zm3.518 0H21.9a5.88 5.88 0 0 1-.648 2.252h-1.445c.134-.756.199-1.506.21-2.252zm3.652 1.795-.172.47-.117.327-.006.012-.256.533-.217.449.9.434.22-.45.261-.543.018-.047.137-.37.171-.471-.94-.344zm-12.248 1.457h.947c.097.387.203.776.334 1.168a5.961 5.961 0 0 1-1.281-1.168zm1.973 0H15.5V23.9a5.992 5.992 0 0 1-1.492-.33c-.252-.615-.45-1.22-.613-1.818zm3.105 0h2.057a15.654 15.654 0 0 1-.621 1.838 5.998 5.998 0 0 1-1.436.31v-2.148zm3.082 0h.996a5.95 5.95 0 0 1-1.346 1.209c.138-.406.25-.808.35-1.209zm-10.643.018-.853.521.26.428.177.295.028.039.392.525.3.399.8-.6-.299-.4-.379-.508-.166-.272-.26-.427zm13.49 1.039-.335.367-.42.465-.008.01-.232.212-.372.336.674.74.37-.337.24-.22.035-.032.453-.498.336-.372-.74-.671zm-11.77 1.173-.6.803.4.299.488.365.041.026.332.203.428.258.52-.854-.428-.26-.319-.195-.462-.346-.4-.299zm9.67.737-.429.263-.101.059h-.008l-.678.326-.021.01-.47.172.343.937.47-.172.045-.015.045-.02.745-.357.04-.024.11-.066.428-.26-.52-.853zm-7.235.724-.344.944.469.172.082.027.047.018.814.209.049.01.072.011.494.074.15-.988-.493-.074-.04-.01-.765-.197-.066-.024-.47-.172zm4.666.366-.494.082-.442.066-.502.025-.5.026.051.998.5-.026.522-.025.05-.01.473-.072.494-.076-.152-.988z" color="#000" font-family="sans-serif" font-weight="400" overflow="visible"/></svg>